<?xml version="1.0" encoding="UTF-8"?>
<svg width="100pt" height="100pt" version="1.1" viewBox="0 0 100 100" xmlns="http://www.w3.org/2000/svg">
 <g>
  <path d="m90.5 9.6992h-81c-3.8984 0-7 3.1016-7 7v66.5c0 3.8984 3.1992 7 7 7h80.898c3.8984 0 7-3.1016 7-7v-66.398c0.10156-3.9023-3.0977-7.1016-6.8984-7.1016zm-58 7.3008c1.6992 0 3 1.3984 3 3 0 1.6992-1.3984 3-3 3-1.6992 0-3-1.3984-3-3 0-1.6992 1.3008-3 3-3zm-9.1992 0c1.6992 0 3 1.3984 3 3 0 1.6992-1.3984 3-3 3-1.6016 0-3-1.3984-3-3 0-1.6992 1.3984-3 3-3zm-9.1992 0c1.6992 0 3 1.3984 3 3 0 1.6992-1.3984 3-3 3-1.6992 0-3-1.3984-3-3 0-1.6992 1.3984-3 3-3zm-2.5 63.602v-50.301h21.5v50.801h-21c-0.30078 0.097657-0.5-0.20312-0.5-0.5zm76.797 0c0 0.30078-0.19922 0.5-0.5 0.5h-50.297v-50.801h50.801z"/>
  <path d="m25.301 37.102h-6c-0.5 0-0.89844 0.39844-0.89844 0.89844v6c0 0.5 0.39844 0.89844 0.89844 0.89844h6c0.5 0 0.89844-0.39844 0.89844-0.89844v-6c0-0.5-0.39844-0.89844-0.89844-0.89844z"/>
  <path d="m25.301 51.699h-6c-0.5 0-0.89844 0.39844-0.89844 0.89844v6c0 0.5 0.39844 0.89844 0.89844 0.89844h6c0.5 0 0.89844-0.39844 0.89844-0.89844v-6c0-0.39844-0.39844-0.89844-0.89844-0.89844z"/>
  <path d="m25.301 66.398h-6c-0.5 0-0.89844 0.39844-0.89844 0.89844v6c0 0.5 0.39844 0.89844 0.89844 0.89844h6c0.5 0 0.89844-0.39844 0.89844-0.89844v-6c0-0.49609-0.39844-0.89844-0.89844-0.89844z"/>
  <path d="m45.398 42.5h35.199c0.5 0 0.89844-0.39844 0.89844-0.89844l0.003906-3.6016c0-0.5-0.39844-0.89844-0.89844-0.89844h-35.203c-0.5 0-0.89844 0.39844-0.89844 0.89844v3.5c-0.10156 0.60156 0.30078 1 0.89844 1z"/>
  <path d="m45.398 63.801h35.199c0.5 0 0.89844-0.39844 0.89844-0.89844v-3.5c0-0.5-0.39844-0.89844-0.89844-0.89844l-35.199-0.003906c-0.5 0-0.89844 0.39844-0.89844 0.89844v3.5c-0.10156 0.5 0.30078 0.90234 0.89844 0.90234z"/>
  <path d="m45.398 74.398h35.199c0.5 0 0.89844-0.39844 0.89844-0.89844v-3.5c0-0.5-0.39844-0.89844-0.89844-0.89844h-35.199c-0.5 0-0.89844 0.39844-0.89844 0.89844v3.5c-0.10156 0.5 0.30078 0.89844 0.89844 0.89844z"/>
  <path d="m45.398 53.102h35.199c0.5 0 0.89844-0.39844 0.89844-0.89844v-3.5c0-0.5-0.39844-0.89844-0.89844-0.89844l-35.199-0.003907c-0.5 0-0.89844 0.39844-0.89844 0.89844v3.5c-0.10156 0.5 0.30078 0.90234 0.89844 0.90234z"/>
 </g>
</svg>
