<?xml version="1.0" encoding="UTF-8"?>
<svg width="120px" height="120px" viewBox="0 0 120 120" version="1.1" xmlns="http://www.w3.org/2000/svg" xmlns:xlink="http://www.w3.org/1999/xlink">
    <!-- Generator: Sketch 61 (89581) - https://sketch.com -->
    <title>720</title>
    <desc>Created with Sketch.</desc>
    <g id="720" stroke="none" stroke-width="1" fill="none" fill-rule="evenodd">
        <g id="internet" transform="translate(40.000000, 0.000000)" fill="#000000" fill-rule="nonzero">
            <path d="M40,-7.10542736e-15 C17.934,-7.10542736e-15 0,17.934 0,40 C0,61.672 17.293,79.34 38.812,79.969 C39.19872,80.008062 39.60497,80.00025 39.9995,80.00025 C40.39403,80.00025 40.80028,80.011969 41.187,79.969 C62.707,79.34009 79.999,61.672 79.999,40 C79.999,17.934 62.065,-7.10542736e-15 39.999,-7.10542736e-15 L40,-7.10542736e-15 Z M38,4.2812 L38,19.0002 L26.281,19.0002 C26.90209,17.2072 27.5857,15.5158 28.3435,14.0002 C31.0779,8.5275 34.5037,5.2072 37.9997,4.2814 L38,4.2812 Z M42,4.2812 C45.4961,5.20698 48.9219,8.5273 51.6562,14 C52.41401,15.5156 53.0976,17.207 53.7187,19 L41.9997,19 L42,4.2812 Z M29.094,5.6874 C27.4846,7.5312 26.0276,9.7304 24.7815,12.2186 C23.7503,14.2772 22.8401,16.5663 22.0627,18.9998 L10.7817,18.9998 C15.2544,12.7889 21.6337,8.0508 29.0937,5.6878 L29.094,5.6874 Z M50.906,5.6874 C58.3669,8.0507 64.746,12.789 69.218,18.9994 L57.937,18.9994 C57.15966,16.5658 56.2495,14.2767 55.2182,12.2182 C53.9721,9.7299 52.5151,7.5307 50.9057,5.687 L50.906,5.6874 Z M8.25,22.9994 L20.969,22.9994 C19.8557,27.5971 19.1643,32.6556 19.0315,37.9994 L4.0315,37.9994 C4.32838,32.5932 5.8323,27.5074 8.2503,22.9994 L8.25,22.9994 Z M25.062,22.9994 L38,22.9994 L38,37.9994 L23.062,37.9994 C23.20653,32.5932 23.89403,27.5114 25.062,22.9994 Z M42,22.9994 L54.938,22.9994 C56.106,27.5111 56.7935,32.5932 56.938,37.9994 L42,37.9994 L42,22.9994 Z M59.031,22.9994 L71.75,22.9994 C74.168,27.5072 75.6719,32.5932 75.9688,37.9994 L60.9688,37.9994 C60.83599,32.6556 60.14458,27.6014 59.0313,22.9994 L59.031,22.9994 Z M4.031,41.9994 L19.031,41.9994 C19.16381,47.351 19.85131,52.3974 20.9685,56.9994 L8.2495,56.9994 C5.8354,52.4877 4.3237,47.4056 4.0307,41.9994 L4.031,41.9994 Z M23.062,41.9994 L38,41.9994 L38,56.9994 L25.062,56.9994 C23.894,52.4955 23.2065,47.4017 23.062,41.9994 L23.062,41.9994 Z M42,41.9994 L56.938,41.9994 C56.79347,47.4017 56.10597,52.4954 54.938,56.9994 L42,56.9994 L42,41.9994 Z M60.969,41.9994 L75.969,41.9994 C75.67603,47.4056 74.1643,52.4874 71.7502,56.9994 L59.0312,56.9994 C60.1484,52.3978 60.8359,47.351 60.9687,41.9994 L60.969,41.9994 Z M10.75,60.9994 L22.062,60.9994 C22.83934,63.4291 23.7495,65.6908 24.7808,67.7494 C26.0347,70.2533 27.5035,72.4877 29.1246,74.3432 C21.6363,71.9799 15.2266,67.2377 10.7496,60.9992 L10.75,60.9994 Z M26.281,60.9994 L38,60.9994 L38,75.7494 C34.5039,74.81581 31.0781,71.4408 28.3438,65.9682 C27.58599,64.4526 26.9024,62.7885 26.2813,60.9994 L26.281,60.9994 Z M42,60.9994 L53.719,60.9994 C53.09791,62.7885 52.4143,64.4525 51.6565,65.9682 C48.9221,71.4409 45.4963,74.8159 42.0003,75.7494 L42,60.9994 Z M57.938,60.9994 L69.25,60.9994 C64.7734,67.2377 58.363,71.9794 50.875,74.3434 C52.4961,72.4879 53.9648,70.2536 55.2188,67.7496 C56.25,65.691 57.1602,63.4293 57.9376,60.9996 L57.938,60.9994 Z" id="Shape"></path>
        </g>
        <path d="M56,114 L50,114 L50,107 L16,107 L16,103 L8,103 L8,22 L62,22 L62,28 L70,28 L70,35.299 L98.5679885,41.8944283 L82.1465615,113.023443 L56.057,107 L56,107 L56,114 Z" id="Combined-Shape" fill="#FFFFFF"></path>
        <g id="portfolio" transform="translate(0.000000, 20.000000)" fill="#000000" fill-rule="nonzero">
            <path d="M74.156,28.914 L90.172,32.5273 L90.168094,32.5273 C90.281374,32.550737 90.398564,32.566362 90.515754,32.566362 C91.308724,32.566362 91.976654,31.964802 92.066554,31.175762 C92.152492,30.382792 91.632964,29.652362 90.855654,29.476562 L74.839654,25.863262 L74.84356,25.863262 C74.43731,25.773419 74.01544,25.843731 73.66386,26.066382 C73.3123,26.289042 73.0623,26.640602 72.97245,27.042942 C72.882606,27.449192 72.952919,27.874972 73.17557,28.222642 C73.39823,28.574202 73.74979,28.824202 74.15604,28.914052 L74.156,28.914 Z" id="Path"></path>
            <path d="M71.227,34.559 C71.0395,35.39884 71.56684,36.2348 72.4106,36.4262 L88.4226,40.0395 C88.53588,40.062938 88.65307,40.078563 88.76635,40.078563 C89.56323,40.074657 90.23115,39.477003 90.32105,38.687963 C90.406988,37.894993 89.88746,37.164563 89.11015,36.988763 L73.09815,33.375463 C72.2544,33.187963 71.41845,33.715303 71.22705,34.559063 L71.227,34.559 Z" id="Path"></path>
            <path d="M69.48,42.066 C69.2925,42.90975 69.81984,43.7457 70.6597,43.9371 L86.6757,47.5504 C86.78898,47.573838 86.90617,47.589463 87.01945,47.589463 C87.81633,47.585557 88.48425,46.987903 88.57415,46.198863 C88.660087,45.405893 88.14056,44.675463 87.36325,44.499663 L71.34725,40.886363 L71.351156,40.886363 C70.507406,40.698863 69.671456,41.226203 69.480056,42.066063 L69.48,42.066 Z" id="Path"></path>
            <path d="M67.734,49.578 C67.5465,50.42175 68.07384,51.2577 68.9137,51.4491 L84.9257,55.0624 L84.929607,55.0624 C85.042887,55.085838 85.156167,55.101462 85.273357,55.101462 C86.070227,55.097556 86.738157,54.499902 86.824157,53.710862 C86.914,52.917892 86.394467,52.187462 85.617157,52.011662 L69.601157,48.398362 C68.761317,48.210862 67.925357,48.738202 67.733957,49.578062 L67.734,49.578 Z" id="Path"></path>
            <path d="M68.48,70.324 L79.214,72.7459 L79.210094,72.7459 C79.323374,72.769337 79.440564,72.784962 79.557754,72.784962 C80.350724,72.781056 81.018654,72.183402 81.108554,71.394362 C81.194491,70.601392 80.674964,69.870962 79.897654,69.695162 L63.995654,66.109262 L66.749554,68.035062 C67.550334,68.597562 68.155754,69.398362 68.480054,70.324162 L68.48,70.324 Z" id="Path"></path>
            <path d="M78.152,77.207 L68.7497,75.0859 L68.7497,78.289 L77.4645,80.2578 C77.57778,80.281238 77.69497,80.296863 77.80825,80.296863 C78.60513,80.292957 79.27305,79.695303 79.36295,78.906263 C79.448888,78.113293 78.92936,77.382863 78.15205,77.207063 L78.152,77.207 Z" id="Path"></path>
            <path d="M60.938,60.715 L80.961,65.2306 L80.957093,65.234506 C81.070373,65.257943 81.187563,65.273569 81.304753,65.273569 C82.101623,65.269662 82.769553,64.672009 82.855553,63.882969 C82.945396,63.089999 82.421963,62.359569 81.648553,62.183769 L60.937553,57.511869 L60.938,60.715 Z" id="Path"></path>
            <path d="M57.973,17.316 C56.6371,17.01131 55.2425,17.10506 53.9574,17.58162 C54.43396,18.47224 54.68396,19.46832 54.68787,20.48002 L54.68787,20.66752 C55.49256,20.26908 56.41057,20.16361 57.28167,20.36283 C58.30117,20.58549 59.18787,21.21049 59.73867,22.09333 C60.27773,22.94099 60.44961,23.96833 60.21914,24.94883 C59.80117,26.66763 58.26994,27.89023 56.49644,27.91363 L57.85194,28.40582 C58.72303,28.72613 59.48084,29.30035 60.02384,30.05032 C61.66054,29.08938 62.83244,27.49952 63.26604,25.65582 C63.68401,23.86672 63.3676,21.98392 62.38713,20.43312 C61.39494,18.84332 59.80123,17.71832 57.97303,17.31592 L57.973,17.316 Z" id="Path"></path>
            <path d="M60.937964,35.394993 L60.937964,38.7505 C61.52394,39.05909 62.02,39.52003 62.3794,40.0786 C62.91456,40.93016 63.09034,41.9575 62.85987,42.938 L60.94187,51.188 L60.937964,51.188 L60.937964,54.3911 L61.769994,54.5786 L61.766088,54.5786 C62.605928,54.77001 63.437988,54.24657 63.633288,53.4106 L65.902788,43.6489 L65.902788,43.644993 C66.324668,41.855893 66.008258,39.973093 65.023878,38.418393 C64.094188,36.930093 62.633278,35.851993 60.937964,35.394993 L60.937964,35.394993 Z" id="Path"></path>
            <path d="M2.0469,83.234 L47.3589,99.812 C48.31984,100.15966 49.3901,100.01903 50.2261,99.437 C51.03079,98.87841 51.523,97.9761 51.5542,96.9995 L51.562012,20.4835 C51.562012,19.171 50.741702,17.9952 49.507312,17.546 L10.085312,3.124 L60.605312,3.124 L60.605312,9.2412 L68.753712,9.2412 L68.753712,13.3974 L44.495712,7.9286 L44.491806,7.9286 C42.362906,7.43641 40.179306,8.48719 39.234006,10.4598 L42.210606,11.5457 C42.511386,11.16289 42.968416,10.93632 43.452806,10.93632 C43.573896,10.93632 43.691086,10.951945 43.804366,10.975382 L95.656366,22.678382 L95.660272,22.678382 C96.062612,22.764319 96.410272,23.006502 96.632932,23.354162 C96.851682,23.701822 96.925902,24.123692 96.832152,24.522162 L81.465152,90.624162 L68.746152,87.756962 C68.718808,88.842862 68.312562,89.885862 67.597752,90.702262 L80.777752,93.671062 C81.000412,93.721843 81.230872,93.749187 81.465252,93.749187 C82.918352,93.749187 84.176152,92.749187 84.512152,91.335087 L99.879152,25.233087 C100.156492,24.022187 99.937746,22.748687 99.277592,21.697887 C98.613532,20.643187 97.558792,19.897087 96.347892,19.623687 L71.878892,14.108087 L71.878892,9.240887 C71.874986,7.514287 70.476592,6.119787 68.753892,6.115887 L63.730492,6.115887 L63.730492,3.123687 C63.730492,2.295567 63.398462,1.498687 62.812522,0.912787 C62.226582,0.326847 61.433622,-0.001273 60.605522,-0.001273 L3.125522,-0.001273 C2.297402,-0.001273 1.500522,0.326847 0.914622,0.912787 C0.328682,1.498727 0.000562,2.295587 0.000562,3.123687 L0.031812,3.467437 C0.008374,3.611967 0.000562,3.760407 0.000562,3.904937 L0.000562,80.295937 C0.000562,81.608437 0.816972,82.780337 2.047462,83.233437 L2.0469,83.234 Z" id="Path"></path>
            <path d="M56.254,95.31211 C56.55869,95.31211 56.85556,95.222156 57.11338,95.05419 C57.54697,94.76513 57.8126,94.27294 57.8165,93.74949 L57.8165,89.19479 L64.0665,89.19479 C64.92588,89.190884 65.6251,88.49557 65.629,87.63229 L65.629,71.87429 C65.625094,71.36257 65.37509,70.88601 64.95712,70.59309 L57.81652,65.59309 L57.81652,32.81209 C57.812614,32.15584 57.40246,31.56989 56.78532,31.34329 L54.68372,30.57767 L54.679814,94.78867 L55.640754,95.19492 L55.64466,95.19492 C55.83607,95.273046 56.0431,95.31211 56.25404,95.31211 L56.254,95.31211 Z" id="Path"></path>
        </g>
    </g>
</svg>