<?xml version="1.0" encoding="UTF-8"?>
<svg width="100pt" height="100pt" version="1.1" viewBox="0 0 100 100" xmlns="http://www.w3.org/2000/svg">
 <g fill-rule="evenodd">
  <path d="m47.676 95.156v-10.852c-6.2031 0.38672-11.242-4.6523-11.242-10.852 0-5.8125 5.0391-10.852 11.242-10.465v-10.465h-19.766c0.77344-1.9375 1.9375-3.875 1.9375-5.8125 0-7.75-11.629-7.75-11.629 0 0 1.9375 1.1641 3.875 1.9375 5.8125h-19.766v39.535c0 1.5508 1.1641 3.1016 3.1016 3.1016h44.188z"/>
  <path d="m100 52.52h-12.402c0.38672 6.2031-4.2617 11.242-10.465 11.242-6.2031 0-11.242-5.0391-10.852-11.242h-13.953v16.668c-1.5508-0.38672-3.4883-1.5508-5.4258-1.5508-7.75 0-7.75 12.016 0 12.016 1.9375 0 3.875-1.1641 5.4258-1.5508v17.055h44.188c1.9375 0 3.4883-1.5508 3.4883-3.1016v-39.535z"/>
  <path d="m0 47.867h13.566c-0.77344-6.2031 4.2617-11.629 10.465-11.629s11.242 5.4258 10.465 11.629h13.18v-17.828c1.9375 0.77344 3.875 1.9375 5.8125 1.9375 8.1406 0 8.1406-12.402 0-12.402-1.9375 0-3.875 1.5508-5.8125 2.3242v-17.055h-44.188c-1.9375 0-3.4883 1.5508-3.4883 3.4883z"/>
  <path d="m100 47.867v-39.535c0-1.9375-1.5508-3.4883-3.4883-3.4883h-44.188v10.465c6.2031-0.77344 12.016 4.2617 12.016 10.465 0 6.5898-5.8125 11.242-12.016 10.465v11.629h20.156c-0.38672 1.5508-1.5508 3.4883-1.5508 5.4258 0 7.75 12.016 7.75 12.016 0 0-1.9375-0.77344-3.875-1.5508-5.4258z"/>
 </g>
</svg>
