<?xml version="1.0" encoding="UTF-8"?>
<svg width="100pt" height="100pt" version="1.1" viewBox="0 0 100 100" xmlns="http://www.w3.org/2000/svg">
 <path d="m76 36l-0.20312 0.003906c-0.48438 0.011719-0.96484 0.066406-1.4414 0.15625-1.6445 0.32422-3.168 1.1094-4.543 2.0508-0.26172 0.17969-0.51953 0.36719-0.77344 0.55859-1.4727 1.1133-2.8164 2.3945-4.082 3.7383-1.5156 1.6055-2.9258 3.3086-4.293 5.043l-1.918 2.5078-0.90234 1.1836c-1.3359 1.793-2.6602 3.5977-3.9922 5.3945-0.99609 1.3398-2.0039 2.6719-3.0312 3.9844l-0.8125 1.0078-1.5625 1.9375c-0.60547 0.72656-1.2266 1.4453-1.8555 2.1484-0.49219 0.55078-0.99219 1.0898-1.5 1.6211-3.0078 3.1445-6.3789 6.0117-10.277 7.9883-0.48828 0.24609-0.98438 0.48047-1.4883 0.69922-0.66406 0.28516-1.3359 0.54687-2.0234 0.77344-0.91406 0.30469-1.8438 0.55469-2.7891 0.74609-0.90625 0.18359-1.8281 0.3125-2.75 0.38281-0.46875 0.035157-0.94141 0.058594-1.4102 0.066407-0.17187 0.003906-0.17187 0.003906-0.34375 0.003906h-12.012c-0.53125 0-1.0391-0.21094-1.4141-0.58594s-0.58594-0.88281-0.58594-1.4141v-9.9961c0-0.53125 0.21094-1.043 0.58594-1.418s0.88672-0.58594 1.418-0.58203c4.0703 0.015625 8.1172 0.074219 12.199-0.007812 0.13672-0.003907 0.26953-0.011719 0.40625-0.019532 0.40234-0.03125 0.80078-0.085937 1.1953-0.16797 1.6758-0.35156 3.2188-1.168 4.6133-2.1406 0.32031-0.22266 0.63281-0.45312 0.94141-0.69141 1.4883-1.1562 2.8398-2.4766 4.1211-3.8555 1.5195-1.6367 2.9375-3.3672 4.3125-5.125l1.4805-1.9531 1.707-2.25c1.0938-1.4766 2.1836-2.957 3.2773-4.4297 0.99609-1.3359 2-2.668 3.0234-3.9844l0.73828-0.91406 1.832-2.2695c0.60938-0.72266 1.2266-1.4375 1.8594-2.1406 0.49219-0.54688 0.99219-1.0859 1.5-1.6133 3.0117-3.1289 6.3945-5.9727 10.305-7.9102 0.49219-0.24219 0.98828-0.47266 1.4922-0.68359 0.66406-0.28125 1.3438-0.53125 2.0312-0.75 0.91797-0.29297 1.8516-0.53125 2.7969-0.71094 1.3711-0.25781 2.7578-0.38281 4.1523-0.39062h0.015625v-8l17 15-17 15v-8zm0 28v-8l17 15-17 15v-8h-0.011719c-1.3945-0.003906-2.7891-0.12891-4.1602-0.38672-0.94922-0.17578-1.8828-0.41406-2.8047-0.70703-0.6875-0.21875-1.3672-0.46875-2.0352-0.75-0.50781-0.21094-1.0039-0.44141-1.4961-0.68359-3.8242-1.8867-7.1523-4.6445-10.117-7.6836-0.51562-0.52734-1.0195-1.0625-1.5156-1.6094l-1.2383-1.4102 1.3555-1.6836c1.0469-1.3398 2.0703-2.6992 3.0859-4.0625 1.2148-1.6367 2.4219-3.2773 3.6367-4.9141l0.59766-0.76953c1.3242 1.6445 2.6602 3.2031 4.0898 4.6719 1.2109 1.2422 2.4961 2.4219 3.9023 3.4414 1.5078 1.0938 3.1992 2.0234 5.043 2.3828 0.52734 0.10156 1.0625 0.15625 1.5977 0.16016h0.070312zm-37.273-17.234l-2.4766-2.957c-1.4336-1.6211-2.9531-3.1836-4.6406-4.543-0.30859-0.25-0.62109-0.49219-0.94531-0.72266-0.25-0.18359-0.50781-0.35938-0.76562-0.53125-1.3516-0.88672-2.8438-1.6094-4.4453-1.8867-0.45703-0.078125-0.92188-0.11719-1.3867-0.125h-0.082031-11.984c-1.1055 0-2-0.89453-2-2v-10c0-1.1055 0.89453-2 2-2 4.0586-0.003906 8.1172-0.015625 12.18 0 0.17578 0.003906 0.35547 0.003906 0.53125 0.011719 0.46875 0.015625 0.9375 0.042969 1.4023 0.085937 0.91797 0.085938 1.832 0.23047 2.7305 0.42578 0.88281 0.19141 1.75 0.4375 2.6055 0.73047 0.67969 0.23438 1.3516 0.49609 2.0078 0.78906 0.55078 0.24219 1.0898 0.50391 1.6211 0.78516 3.5781 1.875 6.707 4.5039 9.5156 7.3867 0.51172 0.52734 1.0156 1.0625 1.5117 1.6094l1.3125 1.5-1.2852 1.6016c-1.043 1.3398-2.0664 2.6953-3.0781 4.0547-1.2148 1.6328-2.418 3.2734-3.6328 4.9102l-0.6875 0.87891z" fill-rule="evenodd"/>
</svg>
