<?xml version="1.0" encoding="UTF-8"?>
<svg width="100pt" height="100pt" version="1.1" viewBox="0 0 100 100" xmlns="http://www.w3.org/2000/svg">
 <g>
  <path d="m51.336 28.727c-0.066407-0.039062-0.13281-0.074218-0.20313-0.10937-0.68359-0.46484-1.582-0.46484-2.2656 0-0.070313 0.035156-0.13672 0.070312-0.20313 0.10937l-29.547 24.656c-0.47656 0.39453-0.75 0.98047-0.75 1.5977v29.379c0 0.55469 0.21875 1.082 0.60937 1.4727 0.39063 0.39062 0.92188 0.61328 1.4727 0.61328h23.473c0.55078 0 1.082-0.22266 1.4727-0.61328s0.60938-0.91797 0.60938-1.4727v-18.855l7.9922 0.003906v18.855-0.003906c0 0.55469 0.21875 1.082 0.60938 1.4766 0.39062 0.39062 0.92188 0.60937 1.4727 0.60937h23.473c0.55078 0 1.082-0.21875 1.4727-0.60937 0.39062-0.39453 0.60937-0.92188 0.60937-1.4766v-29.379c0-0.61719-0.27344-1.2031-0.75-1.5977zm26.133 53.551h-19.305v-18.855c0-0.55078-0.22266-1.082-0.61328-1.4727s-0.91797-0.60938-1.4727-0.60938h-12.156c-1.1523 0-2.0859 0.93359-2.0859 2.082v18.855h-19.301v-26.32l27.465-22.914 27.465 22.914z"/>
  <path d="m92.078 51.566-8.082-7.1758v-28.75c0-0.55469-0.21875-1.082-0.60938-1.4766-0.39062-0.39062-0.92188-0.60937-1.4727-0.60937h-13.941c-0.55469 0-1.0859 0.21875-1.4766 0.60937-0.39062 0.39453-0.60938 0.92188-0.60938 1.4766v12.672l-14.504-12.879c-0.078124-0.058594-0.16406-0.10547-0.25-0.14844-0.11328-0.082031-0.23047-0.15234-0.35937-0.20703-0.125-0.046875-0.25391-0.082031-0.38672-0.10156-0.25781-0.070312-0.53125-0.066406-0.78516 0.003907-0.12891 0.019531-0.25 0.050781-0.37109 0.09375-0.12891 0.058593-0.25391 0.12891-0.36719 0.21484-0.085937 0.039063-0.16797 0.089844-0.24609 0.14453l-40.695 36.133c-0.85938 0.76562-0.9375 2.082-0.17188 2.9414 0.76172 0.85938 2.082 0.9375 2.9414 0.17188l39.309-34.906 39.312 34.906c0.41016 0.37109 0.95312 0.5625 1.5078 0.53125 0.55469-0.03125 1.0703-0.28125 1.4414-0.69531 0.36719-0.41406 0.55469-0.96094 0.51953-1.5117-0.035156-0.55469-0.28906-1.0703-0.70312-1.4375zm-22.023-33.844h9.7773v22.969l-9.7773-8.6797z"/>
 </g>
</svg>