<svg width="80px" height="72px" viewBox="0 0 80 72" version="1.1" xmlns="http://www.w3.org/2000/svg" xmlns:xlink="http://www.w3.org/1999/xlink">
    <title>new folder</title>
    <g id="File-Icons" stroke="none" stroke-width="1" fill="none" fill-rule="evenodd">
        <g id="Mobile" transform="translate(-384.000000, -34.000000)" fill="#000000" fill-rule="nonzero">
            <g id="np_add-folder_2685565_000000" transform="translate(384.000000, 34.000000)">
                <path d="M42,42.168 L42,52.582 C42,53.7343 41.06641,54.6679 39.918,54.6679 C38.7657,54.6679 37.8321,53.73431 37.8321,52.582 L37.8321,42.168 L27.4181,42.168 C26.2658,42.168 25.3322,41.23441 25.3322,40.0821 C25.3322,38.9337 26.26579,38.0001 27.4181,38.0001 L37.8321,38.0001 L37.8321,27.5821 C37.8321,26.4337 38.76569,25.5001 39.918,25.5001 C41.0664,25.5001 42,26.43369 42,27.5821 L42,38.0001 L52.418,38.0001 C53.5664,38.0001 54.5,38.93369 54.5,40.0821 C54.5,41.2344 53.56641,42.168 52.418,42.168 L42,42.168 Z M26.926,0.5 C30.5705,0.5 33.9026,2.5586 35.5276,5.8164 C36.45338,7.668 38.344,8.832 40.4065,8.832 L73.2505,8.832 C76.6997,8.832 79.5005,11.6328 79.5005,15.082 L79.5005,65.082 C79.5005,68.5351 76.6997,71.332 73.2505,71.332 L6.5825,71.332 C3.1333,71.332 0.3325,68.5351 0.3325,65.082 L0.3325,6.75 C0.3325,3.3008 3.1333,0.5 6.5825,0.5 L26.926,0.5 Z M26.926,4.668 L6.582,4.668 C5.4336,4.668 4.5,5.60159 4.5,6.75 L4.5,65.082 C4.5,66.2343 5.43359,67.1679 6.582,67.1679 L73.25,67.1679 C74.3984,67.1679 75.332,66.23431 75.332,65.082 L75.332,15.082 C75.332,13.9336 74.39841,13 73.25,13 L40.406,13 C36.7654,13 33.4333,10.9414 31.8005,7.6797 C30.87862,5.832 28.9919,4.668 26.9255,4.668 L26.926,4.668 Z" id="Shape"></path>
            </g>
        </g>
    </g>
</svg>