<svg width="48px" height="48px" viewBox="0 0 48 48" version="1.1" xmlns="http://www.w3.org/2000/svg" xmlns:xlink="http://www.w3.org/1999/xlink">
    <!-- Generator: Sketch 61 (89581) - https://sketch.com -->
    <title>star</title>
    <desc>Created with Sketch.</desc>
    <g id="star" stroke="none" stroke-width="1" fill="none" fill-rule="evenodd">
        <g transform="translate(2.000000, 3.000000)" fill="#000000" fill-rule="nonzero" id="Shape">
            <path d="M9.30063412,41 C8.93617593,41 8.61727502,40.909292 8.29837411,40.6825221 C7.75168683,40.3196903 7.52390046,39.6847345 7.61501501,39.0044248 L9.75620685,26.3506637 L0.508080373,17.3705752 C0.0525076398,16.9170354 -0.129721453,16.2367257 0.0980649131,15.6471239 C0.280294006,15.0121681 0.826981286,14.6039823 1.46478311,14.4679204 L14.2208196,12.5176991 L19.9610361,0.952433628 C20.2343797,0.362831858 20.8266243,0 21.5099834,0 C22.1477852,0 22.7400297,0.362831858 23.0589307,0.952433628 L28.7991471,12.5176991 L41.5551836,14.4225664 C42.1929854,14.5132743 42.7396727,14.9668142 42.9219018,15.6017699 C43.1041309,16.2367257 42.9674591,16.8716814 42.5118864,17.3252212 L33.2637599,26.3053097 L35.4049517,38.9590708 C35.4960663,39.5940265 35.2682799,40.2289823 34.7215926,40.6371681 C34.1749053,41.045354 33.4915462,41.090708 32.944859,40.7732301 L21.5099834,34.8318584 L10.0751078,40.7732301 C9.8473214,40.909292 9.57397776,41 9.30063412,41 Z M3.42374586,16.6902655 L12.444086,25.4889381 L10.3484514,37.8252212 L21.5099834,32.0199115 L32.6715153,37.7798673 L30.5758808,25.3982301 L39.5962209,16.5995575 L27.113528,14.7400442 L21.5099834,3.49225664 L15.9064387,14.7853982 L3.42374586,16.6902655 Z"></path>
        </g>
    </g>
</svg>