<svg width="100pt" height="100pt" version="1.1" viewBox="0 0 100 100" xmlns="http://www.w3.org/2000/svg">
 <path d="m50.832 53.125c9.375-0.41797 16.875-8.2305 16.875-17.707 0-9.793-7.918-17.707-17.707-17.707-9.793-0.003907-17.707 7.9141-17.707 17.707 0 9.4805 7.5 17.188 16.875 17.707-15.418 0.51953-27.293 12.812-27.293 29.168h4.168c0-14.582 10.312-25 23.957-25s23.957 10.418 23.957 25h4.168c0-16.355-11.875-28.648-27.293-29.168zm-14.375-17.605c0-7.5 6.043-13.543 13.543-13.543s13.543 6.043 13.543 13.543-6.043 13.543-13.543 13.543-13.543-6.1445-13.543-13.543z"/>
</svg>